<svg width="19" height="22" viewBox="0 0 19 22" fill="none" xmlns="http://www.w3.org/2000/svg">
<path d="M13.9741 5.14893C11.9982 5.14893 11.1631 6.0936 9.78702 6.0936C8.37612 6.0936 7.29994 5.1558 5.58766 5.1558C3.91164 5.1558 2.12437 6.18099 0.989386 7.92745C-0.604303 10.3903 -0.333787 15.0287 2.24738 18.9802C3.17066 20.3947 4.40366 21.9811 6.02087 21.9983H6.05028C7.45578 21.9983 7.87332 21.0762 9.8076 21.0654H9.837C11.7424 21.0654 12.1246 21.9929 13.5242 21.9929H13.5536C15.1709 21.9757 16.47 20.218 17.3933 18.8088C18.0578 17.7954 18.3048 17.2868 18.8145 16.1403C15.0807 14.7203 14.4809 9.41712 18.1735 7.38392C17.0463 5.96987 15.4624 5.15089 13.9692 5.15089L13.9741 5.14893Z" fill="white"/>
<path d="M13.539 0C12.3628 0.0800318 10.9907 0.830269 10.187 1.8098C9.45774 2.69751 8.8579 4.01436 9.09313 5.29143H9.18722C10.4398 5.29143 11.7218 4.53579 12.4706 3.56755C13.192 2.64596 13.7389 1.33992 13.539 0Z" fill="white"/>
</svg>
