<svg width="129" height="160" viewBox="0 0 129 160" fill="none" xmlns="http://www.w3.org/2000/svg">
<rect y="160" width="160" height="129" rx="23" transform="rotate(-90 0 160)" fill="#0E68D2"/>
<path d="M81.6645 89.8633L72.9814 98.5198C71.8689 99.6283 70.3702 100.247 68.7995 100.247H45.9226C42.6523 100.247 40 97.5918 40 94.3179V59.9291C40 56.6552 42.6523 54 45.9226 54H77.4826C80.7529 54 83.4052 56.6552 83.4052 59.9291V85.6614C83.4103 87.2391 82.782 88.7497 81.6645 89.8633Z" stroke="white" stroke-width="2.5" stroke-miterlimit="10"/>
<path d="M86.9279 95.3956L78.2448 104.052C77.1323 105.161 75.6336 105.779 74.0629 105.779H51.1912C47.9209 105.779 45.2686 103.124 45.2686 99.8501V65.4613C45.2686 62.1874 47.9209 59.5322 51.1912 59.5322H82.7511C86.0214 59.5322 88.6737 62.1874 88.6737 65.4613V91.1936C88.6737 92.7713 88.0454 94.2819 86.9279 95.3956Z" fill="#2D83E6"/>
<path d="M53.7256 73.5492C53.7256 72.9058 54.2471 72.3843 54.8905 72.3843H79.7424C80.3858 72.3843 80.9073 72.9058 80.9073 73.5492C80.9073 74.1926 80.3858 74.7141 79.7424 74.7141H54.8905C54.2471 74.7141 53.7256 74.1926 53.7256 73.5492Z" fill="white"/>
<path d="M53.7256 78.9862C53.7256 78.3428 54.2471 77.8213 54.8905 77.8213H79.7424C80.3858 77.8213 80.9073 78.3428 80.9073 78.9862C80.9073 79.6296 80.3858 80.1512 79.7424 80.1512H54.8905C54.2471 80.1512 53.7256 79.6296 53.7256 78.9862Z" fill="white"/>
<path d="M53.7261 84.4223C53.7261 83.7789 54.2476 83.2573 54.891 83.2573H79.7429C80.3863 83.2573 80.9078 83.7789 80.9078 84.4223C80.9078 85.0656 80.3863 85.5872 79.7429 85.5872H54.891C54.2476 85.5872 53.7261 85.0656 53.7261 84.4223Z" fill="white"/>
<path d="M53.7261 89.8583C53.7261 89.2149 54.2476 88.6934 54.891 88.6934H67.317C67.9603 88.6934 68.4819 89.2149 68.4819 89.8583C68.4819 90.5017 67.9603 91.0232 67.317 91.0232H54.891C54.2476 91.0232 53.7261 90.5017 53.7261 89.8583Z" fill="white"/>
</svg>
