<svg width="651" height="463" viewBox="0 0 651 463" fill="none" xmlns="http://www.w3.org/2000/svg">
<path d="M283.014 89.0193C261.085 9.48383 162.287 -16.1348 105.676 43.2959C104.863 44.1517 104.049 45.0215 103.235 45.9054C22.0581 134.153 60.4018 351.603 229.813 406.712C399.224 461.822 575.439 361.185 585.33 271.211C595.235 181.238 517.075 152.968 395.772 178.123C327.264 192.349 296.665 138.531 283.014 89.0193Z" fill="#BBE2F2"/>
<path d="M423.944 102.614C401.272 106.304 395 126.381 412.496 140.635C418.276 145.349 426.54 149.25 438.311 151.214C483.136 158.65 506.931 138.812 488.959 113.095C477.875 97.227 446.406 98.9667 423.944 102.614Z" fill="#BBE2F2"/>
<path d="M62.5338 263.326C48.4478 245.2 27.8098 249.296 23.671 271.478C22.3101 278.815 22.8292 287.935 26.7435 299.201C41.6713 342.118 70.4747 353.51 84.4625 325.423C93.0909 308.082 76.4935 281.299 62.5338 263.326Z" fill="#BBE2F2"/>
<path d="M601.31 281.664C599.22 292.593 608.255 300.337 618.469 296.128C621.85 294.739 625.259 292.046 628.29 287.332C639.85 269.359 633.986 253.94 617.908 255.512C607.988 256.494 603.387 270.832 601.31 281.664Z" fill="#BBE2F2"/>
<path d="M544.012 166.324C554.899 168.596 562.798 159.702 558.757 149.404C557.424 145.994 554.801 142.543 550.129 139.428C532.353 127.573 516.836 133.157 518.141 149.277C518.954 159.225 533.223 164.065 544.012 166.324Z" fill="#BBE2F2"/>
<path d="M279.226 49.3425C287.854 56.3715 298.952 52.1064 300.103 41.1069C300.481 37.4732 299.738 33.1941 297.03 28.2836C286.704 9.56774 270.359 7.39311 264.102 22.3069C260.258 31.5105 270.682 42.3837 279.226 49.3425Z" fill="#BBE2F2"/>
<path opacity="0.7" d="M628.318 336.353C645.616 318.97 658.79 299.314 645.687 296.255C632.569 293.183 610.542 327.43 606.697 358.604L602.853 368.888C606.052 346.216 598.28 318.605 586.915 317.468C575.621 316.332 582.454 334.248 591.433 349.569C598.266 361.228 600.061 370.431 600.51 375.173L582.37 423.773C587.322 387.87 575.018 344.293 557.032 342.498C539.101 340.702 549.961 369.126 564.201 393.426C574.962 411.791 577.852 426.312 578.596 433.902L574.976 443.597C576.561 444.481 578.147 445.365 579.732 446.235L601.324 388.403C605.491 385.289 611.818 381.543 620.812 378.498C637.633 372.816 654.525 363.767 645.252 357.215C637.198 351.533 618.272 362.476 605.238 377.909L612.702 357.916C616.069 352.136 620.854 343.859 628.318 336.353Z" fill="#1C31B5"/>
<path d="M83.0738 109.49C85.3186 88.4875 83.5649 68.1862 73.1126 73.1949C62.6463 78.2036 66.3221 113.082 80.5485 136.077L83.5228 145.056C73.4493 128.108 53.3445 113.755 45.0949 119.129C36.9015 124.46 51.1418 132.808 65.4242 138.251C76.2974 142.404 82.4706 147.609 85.3326 150.556L99.3485 192.982C83.3264 166.199 51.5767 143.569 38.5149 152.057C25.5092 160.517 48.1113 173.747 70.7836 182.39C87.9142 188.927 97.679 197.121 102.267 201.807L105.059 210.267C106.602 210.014 108.145 209.748 109.675 209.481L92.993 159.016C94.1154 154.68 96.3321 148.746 100.737 141.857C108.959 128.978 115.441 113.783 105.676 114.387C97.2019 114.906 90.3974 132.457 89.9625 149.854L84.1962 132.401C83.3544 126.691 82.1058 118.554 83.0738 109.49Z" fill="#2D83E6"/>
<g opacity="0.6">
<path d="M511.56 394.114C511.785 395.307 512.038 396.598 512.332 397.987C515.447 412.465 523.093 436.176 540.294 440.834C540.294 440.834 530.936 392.01 564.313 379.285C597.69 366.574 594 354.452 592.092 332.902C590.184 311.352 582.804 307.241 605.968 287.052C629.131 266.863 624.698 236.783 624.698 236.783C624.698 236.783 602.783 271.114 579.367 271.914C555.951 272.714 551.854 292.692 552.85 307.55C553.847 322.408 533.966 324.091 523.205 332.706C512.444 341.32 510.424 386.594 510.424 386.594C510.424 386.594 510.733 389.569 511.56 394.114Z" fill="#2D83E6"/>
<path d="M511.561 394.114C511.785 395.307 512.038 396.598 512.332 397.986C514.731 390.719 518.113 384.616 521.269 379.93C528.761 368.832 539.298 359.727 548.782 356.149C563.878 350.453 571.258 335.652 572.689 308.125C573.517 292.145 590.226 282.717 590.395 282.619C590.886 282.352 591.068 281.735 590.787 281.244C590.521 280.753 589.903 280.57 589.412 280.851C588.683 281.258 571.538 290.91 570.654 308.027C569.28 334.628 562.307 348.896 548.066 354.255C538.063 358.029 527.414 367.205 519.586 378.794C516.822 382.89 513.89 388.053 511.561 394.114Z" fill="#006BDE"/>
</g>
<g opacity="0.5">
<path d="M142.111 440.568H165.569C152.9 438.478 121.473 424.981 118.682 397.931C115.132 363.67 102.94 364.105 82.3722 360.514C61.8184 356.936 56.1503 362.787 43.1025 336.186C30.0547 309.599 0.928711 306.246 0.928711 306.246C0.928711 306.246 27.4732 335.204 22.3944 357.217C17.3156 379.23 34.9091 388.012 49.0091 390.776C63.1091 393.54 59.7279 412.48 65.0733 424.644C67.5145 430.2 77.5178 435.952 87.6755 440.568H142.111Z" fill="#006BDE"/>
<path d="M91.3096 406.852C92.3338 417.108 98.2404 429.314 107.093 439.486C107.402 439.851 107.725 440.201 108.061 440.566H110.727C109.969 439.766 109.24 438.967 108.566 438.195C100.092 428.458 94.2278 416.379 93.2457 406.642C91.7024 391.153 79.7349 380.602 54.4531 372.437C39.7778 367.695 35.1339 349.779 35.0918 349.596C34.9656 349.077 34.4324 348.755 33.9133 348.881C33.3942 349.007 33.0715 349.54 33.1978 350.059C33.3942 350.845 38.1223 369.21 53.8498 374.289C78.3039 382.202 89.8505 392.247 91.3096 406.852Z" fill="#1C31B5"/>
</g>
<g opacity="0.5">
<path d="M154.765 376.986C154.274 378.656 153.699 380.466 153.068 382.388C146.403 402.563 132.724 436.557 107.456 440.57C107.456 440.57 127.449 370.995 81.7957 347.734C36.1425 324.458 43.2696 307.749 49.3025 277.304C55.3354 246.845 66.4891 242.117 36.5634 209.75C6.62358 177.383 17.5669 135.167 17.5669 135.167C17.5669 135.167 43.5502 187.512 76.8291 192.255C110.108 196.983 112.872 226.123 109.168 247.182C105.464 268.226 133.566 273.684 147.582 287.63C161.598 301.575 157.529 366.464 157.529 366.464C157.529 366.464 156.645 370.645 154.765 376.986Z" fill="#2D83E6"/>
<path d="M154.765 376.985C154.274 378.655 153.699 380.464 153.068 382.386C150.767 371.654 146.881 362.422 143.093 355.267C134.113 338.291 120.476 323.671 107.499 317.105C86.8327 306.667 78.5972 284.402 80.7859 244.922C82.0626 222.011 59.6709 205.975 59.4324 205.82C58.773 205.357 58.6186 204.445 59.0816 203.8C59.5446 203.141 60.4565 202.986 61.1019 203.449C62.084 204.137 85.0509 220.552 83.676 245.09C81.5575 283.251 89.302 304.675 108.79 314.524C122.483 321.441 136.26 336.158 145.646 353.906C148.985 360.177 152.366 367.992 154.765 376.985Z" fill="#006BDE"/>
</g>
<path d="M172.879 424.207C172.963 429.497 173.047 434.996 173.174 440.566H224.186C224.284 434.477 224.355 428.627 224.411 423.155C224.565 408.312 224.579 396.092 224.565 388.487C224.565 383.1 224.537 380.041 224.537 380.041L172.514 379.494C172.514 379.494 172.514 383.984 172.556 391.335C172.598 399.515 172.683 411.216 172.879 424.207Z" fill="#18315B"/>
<path d="M172.556 391.348C172.584 399.514 172.682 411.215 172.879 424.206C188.901 425.427 206.466 425.441 224.411 423.154C224.565 408.311 224.579 396.091 224.565 388.486L172.556 391.348Z" fill="#000B29"/>
<path d="M108.594 412.479C108.65 420.799 108.748 430.325 108.917 440.567H159.929C160.056 434.562 160.154 428.641 160.238 422.973C160.42 410.824 160.505 399.866 160.547 392.009C160.589 384.265 160.589 379.509 160.589 379.509L108.552 380.056C108.552 380.056 108.51 385.57 108.524 394.857C108.524 399.768 108.538 405.717 108.594 412.479Z" fill="#18315B"/>
<path d="M108.523 394.858C108.523 399.768 108.551 405.717 108.594 412.479C118.948 415.538 137.495 420.28 160.238 422.974C160.42 410.824 160.504 399.867 160.546 392.01L108.523 394.858Z" fill="#000B29"/>
<path d="M194.035 105.814C194.035 105.814 202.229 97.9148 202.201 90.1283C202.173 82.3276 196.869 84.6286 194.035 77.3751C191.187 70.1076 182.741 65.6742 178.111 66.5721C173.482 67.456 163.689 49.3855 150.416 52.5703C137.144 55.755 138.295 72.7733 132.584 75.2566C126.874 77.7399 128.46 87.8414 131.476 90.1423C134.493 92.4432 135.769 101.703 137.453 101.492C139.15 101.268 194.035 105.814 194.035 105.814Z" fill="#18315B"/>
<path d="M138.87 105.63C138.87 105.63 133.721 98.7558 129.891 104.438C126.06 110.12 131.476 126.9 140.862 122.803L138.87 105.63Z" fill="#F97853"/>
<path d="M138.8 117.624C138.449 117.624 138.14 117.399 138.042 117.049C136.583 111.872 131.224 109.767 131.167 109.739C130.761 109.585 130.55 109.122 130.705 108.715C130.859 108.308 131.322 108.098 131.729 108.252C131.981 108.35 137.902 110.637 139.571 116.614C139.684 117.035 139.445 117.47 139.024 117.596C138.94 117.61 138.87 117.624 138.8 117.624Z" fill="#EA5143"/>
<path d="M133.384 115.017C133.243 115.017 133.089 114.975 132.949 114.89C132.584 114.652 132.472 114.161 132.71 113.796C132.752 113.74 133.706 112.281 135.685 111.397C136.077 111.215 136.554 111.397 136.737 111.804C136.919 112.197 136.737 112.674 136.344 112.856C134.801 113.544 134.057 114.652 134.057 114.666C133.889 114.89 133.636 115.017 133.384 115.017Z" fill="#EA5143"/>
<path d="M191.973 105.63C191.973 105.63 197.122 98.7558 200.952 104.438C204.783 110.12 199.367 126.9 189.981 122.803L191.973 105.63Z" fill="#F97853"/>
<path d="M192.043 117.624C192.394 117.624 192.703 117.399 192.801 117.049C194.26 111.872 199.62 109.767 199.676 109.739C200.083 109.585 200.293 109.122 200.139 108.715C199.984 108.308 199.521 108.098 199.115 108.252C198.862 108.35 192.941 110.637 191.272 116.614C191.16 117.035 191.398 117.47 191.819 117.596C191.903 117.61 191.973 117.624 192.043 117.624Z" fill="#EA5143"/>
<path d="M197.46 115.017C197.6 115.017 197.754 114.975 197.894 114.89C198.259 114.652 198.371 114.161 198.133 113.796C198.091 113.74 197.137 112.281 195.159 111.397C194.766 111.215 194.289 111.397 194.106 111.804C193.924 112.197 194.106 112.674 194.513 112.856C196.043 113.544 196.8 114.652 196.8 114.666C196.954 114.89 197.207 115.017 197.46 115.017Z" fill="#EA5143"/>
<path d="M178.111 137.043V153.739C178.111 153.739 173.131 162.241 166.396 162.816C159.676 163.405 153.699 155.492 153.699 155.492V138.221L178.111 137.043Z" fill="#FFA681"/>
<path d="M178.111 137.043V144.451C173.594 149.459 165.569 150.708 153.699 148.968V138.221L178.111 137.043Z" fill="#F97853"/>
<path d="M195.705 94.1813C195.396 100.663 194.779 108.772 193.544 115.268C193.236 116.882 192.885 118.411 192.492 119.772C188.985 132.076 180.188 153.163 155.593 144.38C144.734 140.508 139.698 128.4 137.453 116.096C135.924 107.734 135.699 99.2881 135.811 93.2553C135.924 87.0962 139.291 81.4702 144.65 78.4257C159.171 70.1902 174.492 73.2627 184.579 77.1349C191.58 79.8287 196.056 86.7033 195.705 94.1813Z" fill="#FFA681"/>
<path d="M137.467 116.082C137.467 116.082 139.852 130.309 142.111 135.486C144.37 140.663 150.529 141.645 152.844 146.022C156.141 152.265 161.164 157.218 169.441 154.201C176.316 151.69 176.007 148.169 179.866 145.447C186.474 140.789 189.743 135.654 190.009 131.403C190.276 127.152 193.559 115.254 193.559 115.254L190.009 115.002C190.009 115.002 187.989 119.183 185.015 123.799C182.026 117.247 167.66 122.017 167.66 122.017L164.91 122.901L162.09 122.017C162.09 122.017 147.555 117.457 144.679 124.318C142.925 121.624 141.494 118.608 140.834 115.395L137.467 116.082ZM164.91 125.118C181.395 122.283 178.449 131.936 178.336 132.287C177.214 133.353 176.078 134.237 174.955 134.854C168.572 138.306 167.884 137.786 165.359 137.899C162.791 138.025 159.256 137.267 155.678 135.261C154.556 134.63 152.886 133.423 151.062 131.754C151.048 131.754 148.467 122.901 164.91 125.118Z" fill="#18315B"/>
<path d="M155.004 107.806C155.004 109.588 154.092 111.033 152.956 111.033C151.82 111.033 150.908 109.588 150.908 107.806C150.908 106.024 151.82 104.579 152.956 104.579C154.092 104.579 155.004 106.024 155.004 107.806Z" fill="#18315B"/>
<path d="M179.389 107.806C179.389 109.588 178.477 111.033 177.34 111.033C176.204 111.033 175.292 109.588 175.292 107.806C175.292 106.024 176.204 104.579 177.34 104.579C178.477 104.579 179.389 106.024 179.389 107.806Z" fill="#18315B"/>
<path d="M185.407 97.1852C185.407 97.1852 176.933 93.8321 170.409 96.6521L171.068 100.286C171.068 100.286 180.65 99.4721 185.477 101.436C185.898 100.033 185.968 98.6162 185.407 97.1852Z" fill="#18315B"/>
<path d="M145.113 97.1982C145.113 97.1982 153.657 93.831 160.223 96.6651L159.564 100.327C159.564 100.327 149.911 99.5131 145.057 101.477C144.622 100.074 144.566 98.6433 145.113 97.1982Z" fill="#18315B"/>
<path d="M165.695 121.331C167.028 121.331 168.361 120.811 168.571 120.727C168.978 120.559 169.174 120.096 169.006 119.689C168.838 119.282 168.375 119.086 167.968 119.254C167.252 119.549 165.527 119.998 164.783 119.549C164.643 119.465 164.446 119.296 164.39 118.805C164.11 116.041 164.867 106.753 164.867 106.655C164.909 106.22 164.573 105.842 164.138 105.799C163.703 105.757 163.324 106.094 163.282 106.529C163.254 106.922 162.51 116.055 162.805 118.959C162.917 120.054 163.492 120.615 163.955 120.896C164.474 121.218 165.092 121.331 165.695 121.331Z" fill="#F97853"/>
<path d="M155.593 126.703C156.196 129.734 158.188 135.303 164.937 135.303C171.699 135.303 173.593 130.211 174.239 126.703H155.593Z" fill="white"/>
<path d="M195.705 94.1813C195.396 100.663 194.779 108.772 193.544 115.268L189.995 115.016C189.995 115.016 190.85 109.544 191.243 105.966C191.636 102.403 192.31 95.7246 189.265 94.8968C186.235 94.069 188.016 86.4648 183.779 83.1678C179.556 79.8567 170.17 76.9526 163.927 80.7827C157.698 84.6129 150.613 82.4944 147.737 83.1678C144.86 83.8272 140.96 87.7836 142.012 91.4875C143.079 95.1774 139.908 97.4362 139.136 101.266C138.365 105.097 140.82 115.408 140.82 115.408L137.439 116.096C135.909 107.734 135.685 99.2881 135.797 93.2553C135.909 87.0962 139.277 81.4702 144.636 78.4257C159.157 70.1902 174.478 73.2627 184.565 77.1349C191.58 79.8287 196.056 86.7033 195.705 94.1813Z" fill="#18315B"/>
<path d="M235.312 405.142C219.276 409.211 203.226 411.834 187.176 413.041C186.446 413.097 185.731 413.153 185.001 413.195C182.798 413.35 180.582 413.462 178.379 413.56C167.464 414.037 156.535 413.841 145.619 412.999C143.417 412.83 141.214 412.634 139.011 412.41C138.31 412.339 137.608 412.269 136.893 412.185C123.845 410.768 110.811 408.411 97.7633 405.128C97.6371 393.104 97.7774 355.097 98.5209 313.878C98.6051 308.925 98.7033 303.93 98.8156 298.922C99.966 244.598 102.197 189.447 106.223 183.933C110.068 178.644 121.67 171.923 132.754 165.862C133.413 165.498 134.073 165.147 134.732 164.782C137.229 163.421 139.657 162.116 141.957 160.868C146.868 158.188 151.105 155.817 153.729 153.979V155.494C153.729 155.494 159.691 163.393 166.426 162.804C172.557 162.271 177.229 155.2 178.014 153.923C180.904 155.957 186.096 158.763 192.128 161.948C193.798 162.832 195.538 163.744 197.305 164.684C197.951 165.02 198.61 165.371 199.27 165.722C211.532 172.218 224.748 179.555 228.718 184.999C229.013 185.406 229.294 186.079 229.56 187.005C231.903 194.96 233.362 221.336 234.246 253.283C234.246 253.395 234.246 253.507 234.26 253.633C234.302 254.924 234.33 256.229 234.358 257.534C234.372 257.702 234.372 257.87 234.372 258.053C234.667 269.263 234.877 281.062 235.046 292.903C235.06 293.843 235.074 294.783 235.088 295.723C235.088 296.2 235.102 296.663 235.102 297.14C235.144 299.469 235.172 301.812 235.186 304.127C235.214 305.839 235.228 307.55 235.242 309.262C235.677 352.123 235.495 392.543 235.312 405.142Z" fill="#006BDE"/>
<path d="M234.33 257.546C230.472 251.247 226.319 244.807 222.419 239.111C222.405 239.097 222.391 239.083 222.391 239.069C220.749 236.684 219.15 234.425 217.635 232.363C217.607 232.321 217.578 232.293 217.55 232.25C217.073 231.605 216.61 230.974 216.147 230.356C216.077 230.244 216.021 230.146 215.979 230.02C215.853 229.613 215.993 229.15 216.358 228.869C216.835 228.519 217.494 228.603 217.845 229.08C222.531 235.295 228.536 244.218 234.204 253.295C234.204 253.408 234.204 253.52 234.218 253.646C234.274 254.937 234.302 256.242 234.33 257.546Z" fill="#264CBE"/>
<path d="M228.844 184.144C228.844 184.144 253.032 228.464 267.791 250.94C267.791 250.94 276.181 243.237 287.083 232.925C298.91 221.744 315.086 203.07 315.086 203.07L324.037 213.69C324.037 213.69 287.7 279.098 271.397 287.305C255.094 295.527 225.056 237.345 225.056 237.345L228.844 184.144Z" fill="#006BDE"/>
<path d="M126.412 358.842C126.398 358.842 126.384 358.842 126.37 358.842C125.767 358.814 125.29 358.309 125.318 357.706C126.581 321.915 108.019 310.313 107.837 310.2C107.318 309.892 107.149 309.218 107.458 308.699C107.767 308.18 108.44 308.012 108.959 308.32C109.17 308.447 114.066 311.421 118.822 319.067C123.158 326.04 128.194 338.415 127.507 357.79C127.479 358.379 126.988 358.842 126.412 358.842Z" fill="#264CBE"/>
<path d="M205.597 325.115C205.036 325.115 204.559 324.68 204.503 324.105C203.913 316.571 206.397 311.071 209.539 304.113C210.465 302.078 211.405 299.974 212.387 297.603C218.49 282.801 215.418 265.881 215.39 265.713C215.277 265.124 215.67 264.548 216.26 264.436C216.849 264.324 217.424 264.717 217.536 265.306C217.677 266.022 220.749 283.04 214.408 298.431C213.426 300.83 212.457 302.948 211.532 304.997C208.403 311.927 206.13 316.95 206.677 323.923C206.719 324.526 206.27 325.045 205.667 325.101C205.653 325.115 205.625 325.115 205.597 325.115Z" fill="#264CBE"/>
<path d="M141.943 160.868C142.406 164.39 143.094 168.964 143.851 174.155C144.076 175.698 144.314 177.297 144.539 178.939C145.297 184.298 146.082 190.135 146.756 196.041C146.938 197.627 147.106 199.212 147.261 200.797C147.85 206.634 148.299 212.442 148.453 217.844C148.509 219.471 148.523 221.071 148.523 222.614C148.509 226.739 148.285 230.513 147.78 233.754C147.457 235.802 147.177 237.794 146.924 239.758C146.714 241.386 146.531 242.971 146.363 244.543C145.731 250.632 145.409 256.3 145.311 261.645C145.282 263.272 145.282 264.858 145.297 266.415C145.339 272.476 145.689 278.13 146.194 283.518C146.349 285.131 146.503 286.716 146.671 288.274C147.331 294.152 148.117 299.75 148.874 305.278C149.099 306.863 149.309 308.435 149.505 310.02C149.828 312.545 150.137 315.085 150.403 317.624C150.684 320.318 150.866 323.489 150.951 326.982C150.993 328.511 151.021 330.111 151.021 331.766C151.049 336.999 150.908 342.808 150.67 348.869C150.6 350.454 150.544 352.054 150.46 353.681C150.193 359.321 149.828 365.115 149.435 370.826C149.323 372.439 149.197 374.038 149.085 375.638C148.65 381.586 148.159 387.395 147.654 392.782C147.499 394.424 147.359 396.023 147.205 397.567C146.629 403.501 146.082 408.776 145.605 412.999C156.534 413.841 167.45 414.024 178.379 413.547C178.632 409.071 179.333 401.832 180.02 393.329C180.147 391.772 180.273 390.173 180.399 388.531C180.806 383.116 181.185 377.335 181.423 371.499C181.494 369.9 181.55 368.3 181.592 366.687C181.76 360.864 181.76 355.07 181.508 349.64C181.437 347.999 181.339 346.385 181.213 344.814C181.087 343.215 180.932 341.643 180.75 340.142C180.217 335.877 180.02 331.78 180.049 327.74C180.049 326.14 180.091 324.541 180.175 322.942C180.427 317.386 181.031 311.83 181.732 305.923C181.914 304.352 182.111 302.767 182.307 301.139C182.939 295.892 183.598 290.322 184.117 284.219C184.258 282.662 184.384 281.062 184.496 279.421C184.861 274.188 185.099 268.576 185.141 262.445C185.155 260.859 185.141 259.26 185.127 257.604C185.071 252.301 184.847 246.633 184.412 240.53C184.37 239.983 184.342 239.436 184.3 238.888C184.215 237.822 184.145 236.742 184.103 235.662C183.823 230.092 183.893 224.354 184.215 218.643C184.3 217.044 184.412 215.431 184.524 213.831C184.959 208.107 185.604 202.439 186.348 197.009C186.572 195.396 186.797 193.796 187.035 192.225C187.933 186.276 188.887 180.664 189.771 175.656C190.066 174.014 190.346 172.429 190.613 170.914C191.216 167.532 191.735 164.516 192.114 161.963C186.095 158.778 180.904 155.972 178 153.938C177.214 155.214 172.543 162.285 166.411 162.818C159.691 163.408 153.714 155.509 153.714 155.509V153.994C151.091 155.832 146.854 158.203 141.943 160.868Z" fill="white"/>
<path d="M143.837 174.17C144.061 175.713 144.3 177.313 144.524 178.954C150.557 179.095 157.642 178.183 166.187 176.218C175.334 174.114 183.387 174.479 189.757 175.657C190.051 174.016 190.332 172.43 190.599 170.915C183.71 169.638 175.011 169.274 165.12 171.561C156.688 173.497 149.673 174.395 143.837 174.17Z" fill="#E3E3E3"/>
<path d="M146.742 196.057C146.924 197.642 147.092 199.228 147.247 200.813C152.662 200.673 158.892 199.761 166.173 198.077C173.735 196.338 180.568 196.295 186.32 197.011C186.545 195.398 186.769 193.798 187.007 192.227C180.778 191.455 173.356 191.525 165.107 193.419C158.05 195.047 151.961 195.945 146.742 196.057Z" fill="#E3E3E3"/>
<path d="M148.453 217.844C148.509 219.471 148.523 221.071 148.523 222.614C153.644 222.375 159.467 221.477 166.187 219.934C172.837 218.405 178.912 218.18 184.187 218.643C184.271 217.044 184.384 215.43 184.496 213.831C178.814 213.368 172.276 213.635 165.107 215.276C158.807 216.735 153.279 217.605 148.453 217.844Z" fill="#E3E3E3"/>
<path d="M146.376 244.556C152.002 244.486 158.512 243.574 166.201 241.806C172.935 240.249 179.08 240.052 184.411 240.529C184.369 239.982 184.341 239.435 184.299 238.888C184.215 237.822 184.145 236.741 184.103 235.661C178.519 235.24 172.121 235.535 165.134 237.148C158.148 238.762 152.129 239.645 146.952 239.772C146.727 241.385 146.531 242.985 146.376 244.556Z" fill="#E3E3E3"/>
<path d="M145.31 266.415C151.174 266.457 158.021 265.559 166.186 263.665C173.244 262.038 179.641 261.883 185.127 262.445C185.141 260.859 185.127 259.26 185.113 257.604C179.29 257.071 172.542 257.296 165.12 259.007C157.39 260.789 150.852 261.687 145.324 261.645C145.296 263.272 145.296 264.858 145.31 266.415Z" fill="#E3E3E3"/>
<path d="M146.194 283.519C146.349 285.132 146.503 286.717 146.671 288.275C152.227 288.191 158.639 287.279 166.173 285.539C172.795 284.01 178.842 283.785 184.089 284.22C184.229 282.663 184.356 281.063 184.468 279.422C178.786 278.959 172.262 279.225 165.093 280.867C157.797 282.551 151.54 283.448 146.194 283.519Z" fill="#E3E3E3"/>
<path d="M148.888 305.278C149.112 306.863 149.323 308.435 149.519 310.02C154.387 309.711 159.887 308.842 166.187 307.397C171.827 306.092 177.046 305.741 181.718 305.923C181.9 304.352 182.096 302.767 182.293 301.139C177.144 300.901 171.364 301.294 165.106 302.739C158.989 304.142 153.602 304.997 148.888 305.278Z" fill="#E3E3E3"/>
<path d="M150.965 326.997C151.007 328.526 151.035 330.125 151.035 331.781C155.525 331.402 160.533 330.574 166.187 329.256C171.154 328.119 175.812 327.698 180.035 327.74C180.035 326.141 180.077 324.542 180.161 322.942C175.573 322.9 170.523 323.349 165.121 324.598C159.874 325.804 155.174 326.604 150.965 326.997Z" fill="#E3E3E3"/>
<path d="M150.474 353.681C155.103 353.33 160.309 352.475 166.187 351.114C171.729 349.837 176.878 349.472 181.508 349.655C181.438 348.013 181.339 346.4 181.213 344.828C176.345 344.688 170.943 345.109 165.121 346.456C159.761 347.69 154.963 348.504 150.684 348.869C150.614 350.454 150.544 352.068 150.474 353.681Z" fill="#E3E3E3"/>
<path d="M149.084 375.638C154.065 375.357 159.705 374.473 166.186 372.986C171.7 371.709 176.821 371.345 181.409 371.513C181.479 369.914 181.535 368.314 181.577 366.701C176.611 366.532 171.083 366.939 165.106 368.328C159.228 369.689 154.023 370.531 149.435 370.84C149.322 372.453 149.21 374.052 149.084 375.638Z" fill="#E3E3E3"/>
<path d="M147.218 397.583C152.648 397.442 158.891 396.53 166.187 394.847C171.153 393.71 175.797 393.289 180.02 393.332C180.146 391.774 180.273 390.175 180.399 388.533C175.741 388.463 170.62 388.912 165.12 390.175C158.456 391.718 152.676 392.588 147.667 392.784C147.513 394.426 147.359 396.025 147.218 397.583Z" fill="#E3E3E3"/>
<path d="M185.001 413.194C185.731 413.152 186.446 413.096 187.176 413.04C191.483 387.73 188.999 350.565 188.074 339.187C187.119 327.359 188.957 312.165 193.124 297.49C196.351 286.098 194.373 259.665 192.788 238.438C192.339 232.475 191.918 226.849 191.665 222.219C190.851 207.278 196.267 179.611 199.241 165.749C198.582 165.398 197.923 165.048 197.277 164.711C194.289 178.432 188.677 206.73 189.533 222.346C189.785 226.99 190.22 232.63 190.655 238.606C192.24 259.679 194.205 285.887 191.076 296.915C186.839 311.828 184.973 327.303 185.955 339.369C186.881 350.747 189.378 388.137 185.001 413.194Z" fill="#264CBE"/>
<path d="M140.891 310.186C143.416 325.745 142.63 335.86 141.704 347.561C141.41 351.349 141.101 355.25 140.877 359.571C140.203 373.11 137.916 400.398 136.892 412.183C137.594 412.267 138.295 412.337 139.011 412.407C140.021 400.608 142.322 373.264 143.009 359.669C143.22 355.39 143.528 351.49 143.823 347.73C144.749 335.888 145.563 325.661 142.995 309.849C142.448 306.454 141.859 303.002 141.284 299.579C138.421 282.617 135.447 265.08 136.85 256.676C137.187 254.627 137.622 252.298 138.099 249.829C140.007 239.685 142.378 227.073 141.634 216.115C140.891 205.256 136.443 175.864 134.732 164.794C134.072 165.145 133.413 165.509 132.753 165.874C134.535 177.463 138.786 205.719 139.516 216.27C140.245 226.946 137.902 239.419 136.022 249.45C135.559 251.934 135.11 254.263 134.774 256.339C133.315 265.094 136.177 282.028 139.207 299.958C139.754 303.353 140.344 306.804 140.891 310.186Z" fill="#264CBE"/>
<path d="M99.0538 201.988C99.0538 201.988 77.3917 274.214 72.0322 299.945C66.6728 325.676 66.2519 379.186 66.2519 379.186C66.2519 379.186 56.7818 398.841 56.5573 407.582C56.3188 416.912 61.2152 424.32 60.654 430.423C60.0928 436.526 67.5286 433.215 65.4242 420.854C63.3197 408.494 69.2824 397.298 71.8498 397.663C74.4173 398.028 69.7173 411.16 72.0042 415.888C74.291 420.616 77.2373 411.426 80.1836 405.842C83.2281 400.048 83.0597 387.407 81.6708 378.386C80.2818 369.365 96.6406 314.55 96.7248 298.668L117.433 228.673C117.419 228.687 110.586 199.477 99.0538 201.988Z" fill="#FFA681"/>
<path d="M120.085 226.934C119.355 231.577 116.788 239.546 113.463 249.564C113.182 250.406 112.888 251.275 112.607 252.145C112.593 252.187 112.579 252.229 112.565 252.271C111.737 254.769 110.867 257.378 109.969 260.072C109.969 260.086 109.955 260.1 109.955 260.114C106.28 271.268 102.211 284.021 98.8017 297.139C97.6232 301.629 96.5289 306.16 95.5608 310.678C94.3121 316.444 93.2599 322.196 92.4883 327.822C89.7244 348.096 84.4211 373.784 84.4211 373.784C76.6485 376.969 64.5126 372.76 64.5126 372.76C64.5126 372.76 64.204 335.763 65.9297 321.397C68.0762 303.621 70.798 290.98 74.1792 276.445C83.4811 236.474 99.8539 197.373 104.344 186.99C104.694 186.163 104.975 185.517 105.171 185.068H109.029C116.662 189.937 122.063 214.433 120.085 226.934Z" fill="#006BDE"/>
<path d="M63.894 365.381L64.4973 373.897C64.4973 373.897 76.0439 377.643 84.7004 375.005L86.9872 367.415C78.6535 367.85 70.9511 367.64 63.894 365.381Z" fill="#EA5143"/>
<path d="M113.462 249.563C113.462 249.69 113.434 249.816 113.392 249.942C113.125 250.658 112.858 251.401 112.606 252.159C112.592 252.201 112.578 252.243 112.564 252.285C111.708 254.698 110.852 257.322 109.968 260.086C109.968 260.1 109.954 260.114 109.954 260.128C105.437 274.508 100.835 292.593 98.7163 304.14C98.7444 301.811 98.7584 299.482 98.8005 297.153C97.622 301.642 96.5276 306.174 95.5596 310.692C95.9945 306.454 97.2011 300.113 98.8566 292.916C102.196 278.367 107.317 260.338 111.385 249.213C111.582 248.665 112.199 248.385 112.746 248.581C113.195 248.736 113.462 249.142 113.462 249.563Z" fill="#264CBE"/>
<path d="M500.883 440.565H552.036C551.868 437.016 551.7 433.621 551.531 430.408C550.633 412.884 549.876 400.959 549.876 400.959L508.263 402.811L504.812 402.965L498.695 403.246C498.695 403.246 499.284 413.909 500.21 429.538C500.42 432.989 500.645 436.693 500.883 440.565Z" fill="#18315B"/>
<path d="M504.826 402.966L498.709 403.247C498.709 403.247 499.298 413.91 500.224 429.539C516.204 430.872 533.657 431.419 551.546 430.409C550.648 412.885 549.89 400.96 549.89 400.96L508.277 402.812L504.826 402.966Z" fill="#000B29"/>
<path d="M510.395 440.566C509.455 424.347 508.698 410.5 508.277 402.812L504.825 402.966C505.246 410.626 506.004 424.404 506.944 440.566H510.395Z" fill="#000B29"/>
<path d="M485.872 440.565C486.138 436.174 486.377 432.007 486.601 428.163C487.485 413.277 488.032 403.232 488.032 403.232L481.396 402.937L477.959 402.783L436.865 400.959C436.865 400.959 436.416 408.072 435.799 419.366C435.476 425.385 435.098 432.61 434.719 440.565H485.872Z" fill="#18315B"/>
<path d="M435.785 419.367C446.939 421.991 464.925 425.667 486.601 428.164C487.485 413.278 488.032 403.233 488.032 403.233L481.396 402.938L477.959 402.784L436.865 400.96C436.865 400.96 436.402 408.073 435.785 419.367Z" fill="#000B29"/>
<path d="M479.278 440.566C480.218 424.389 480.976 410.598 481.396 402.938L477.959 402.783C477.538 410.472 476.767 424.333 475.841 440.566H479.278Z" fill="#000B29"/>
<path d="M557.312 408.944C546.888 411.806 536.464 413.981 526.053 415.426C522.434 415.931 518.814 416.366 515.18 416.689C510.298 417.137 505.415 417.446 500.533 417.601C492.466 417.853 484.385 417.671 476.317 417.067C460.702 415.931 445.101 413.195 429.486 408.93C429.345 394.367 429.556 342.162 430.65 291.809C430.706 289.55 430.748 287.291 430.804 285.046C430.818 284.569 430.832 284.092 430.832 283.615C430.847 283.096 430.861 282.577 430.875 282.058C430.917 280.458 430.959 278.873 430.987 277.288C431.071 274.047 431.155 270.848 431.239 267.663C431.295 265.769 431.352 263.875 431.408 262.009C431.422 261.616 431.436 261.237 431.45 260.845C431.492 259.61 431.534 258.389 431.562 257.169C431.576 256.79 431.59 256.411 431.604 256.032C431.646 254.91 431.674 253.787 431.716 252.679C431.758 251.739 431.787 250.799 431.815 249.873C433.021 215.907 434.789 189.11 437.328 185.336C441.621 178.938 456.241 170.436 467.998 163.505C472.193 161.05 477.187 158.482 480.049 156.588C484.23 159.956 487.261 162.986 493.448 162.776C500.379 162.537 502.076 158.37 504.728 154.807C506.341 155.859 510.438 159.212 512.571 160.461C514.394 161.541 516.359 162.677 518.421 163.856C521.606 165.68 524.987 167.616 528.34 169.58C533.307 172.498 538.203 175.515 542.272 178.405C546.327 181.281 549.553 184.045 551.139 186.43C553.44 189.881 554.927 212.231 555.881 241.638C555.923 242.662 555.951 243.714 555.993 244.766C555.993 244.893 555.993 245.019 555.993 245.145C556.035 246.211 556.063 247.306 556.091 248.4C556.19 251.711 556.274 255.092 556.372 258.53C556.386 259.259 556.414 259.989 556.414 260.718C556.428 261.265 556.442 261.813 556.456 262.36C556.484 263.777 556.526 265.194 556.554 266.625C556.568 266.905 556.568 267.2 556.568 267.481C556.653 271.255 556.723 275.085 556.793 278.943C556.821 280.065 556.835 281.202 556.849 282.338C557.719 335.273 557.522 393.301 557.312 408.944Z" fill="#006BDE"/>
<path d="M556.849 282.337L540.35 299.075L524.973 283.488L509.597 299.075L494.164 283.417L478.731 299.075L463.2 283.319L447.669 299.075L430.889 282.057C430.931 280.457 430.973 278.872 431.001 277.286C431.085 274.046 431.17 270.847 431.254 267.662L447.655 251.022L463.186 266.778L478.717 251.022L494.15 266.68L509.583 251.022L524.959 266.61L540.336 251.022L556.569 267.465C556.653 271.24 556.723 275.07 556.793 278.928C556.807 280.078 556.835 281.201 556.849 282.337Z" fill="#08519F"/>
<path d="M528.354 368.607C506.257 368.509 487.387 358.45 475.462 350.032C462.554 340.926 454.74 331.709 454.655 331.611C454.277 331.162 454.333 330.488 454.782 330.109C455.231 329.731 455.904 329.787 456.283 330.236C456.353 330.32 464.041 339.369 476.724 348.32C488.397 356.542 506.832 366.377 528.354 366.461C528.944 366.461 529.421 366.938 529.407 367.527C529.421 368.144 528.944 368.607 528.354 368.607Z" fill="#264CBE"/>
<path d="M514.577 355.546C495.763 351.843 479.11 337.434 478.352 336.774C477.917 336.382 477.861 335.722 478.254 335.273C478.647 334.824 479.306 334.782 479.755 335.175C479.952 335.343 499.551 352.291 519.516 354.115C520.105 354.157 520.526 354.691 520.484 355.266C520.428 355.855 519.909 356.276 519.333 356.234C517.734 356.094 516.149 355.855 514.577 355.546Z" fill="#264CBE"/>
<path d="M476.893 192.027C476.388 192.027 475.953 191.677 475.855 191.157C475.743 190.582 476.121 190.021 476.697 189.909C503.634 184.802 511.757 167.461 511.842 167.293C512.08 166.76 512.711 166.521 513.245 166.76C513.778 166.998 514.016 167.629 513.778 168.162C513.441 168.92 505.107 186.682 477.104 191.999C477.033 192.027 476.963 192.027 476.893 192.027Z" fill="#264CBE"/>
<path d="M444.021 238.677C443.992 238.803 443.936 238.915 443.88 239.028C443.473 239.673 443.052 240.346 442.632 241.02C442.603 241.062 442.589 241.09 442.561 241.132C441.215 243.307 439.812 245.692 438.366 248.203C438.366 248.217 438.352 248.231 438.338 248.245C436.08 252.202 433.737 256.495 431.45 260.844C431.492 259.61 431.534 258.389 431.562 257.168C431.576 256.79 431.59 256.411 431.604 256.032C435.294 249.171 438.984 242.76 442.07 237.891C442.393 237.386 443.038 237.246 443.544 237.569C443.936 237.807 444.119 238.256 444.021 238.677Z" fill="#264CBE"/>
<path d="M579.774 199.28C579.774 199.28 614.217 188.211 624.417 165.609C627.363 159.057 603.077 92.583 603.077 92.583L591.348 93.1442C591.348 93.1442 594.688 116.209 596.722 129.271C598.391 140.004 601.085 152.841 601.983 157.064C602.18 157.976 602.292 158.495 602.292 158.495C601.717 158.594 601.141 158.706 600.552 158.818C584.46 162.087 563.906 172.567 563.906 172.567L579.774 199.28Z" fill="#FFA681"/>
<path d="M610.949 164.85C611.44 165.201 612.141 165.103 612.492 164.612C612.857 164.107 612.744 163.419 612.253 163.069C609.742 161.245 605.968 159.112 601.997 157.05C602.194 157.962 602.306 158.481 602.306 158.481C601.731 158.579 601.156 158.691 600.566 158.804C604.607 160.88 608.465 163.055 610.949 164.85Z" fill="#F97853"/>
<path d="M527.064 168.864C527.064 168.864 516.639 193.318 543.17 206.927C561.535 216.356 603.358 191.747 603.358 191.747L588.444 160.096C588.444 160.096 550.185 175.879 527.064 168.864Z" fill="#006BDE"/>
<path d="M597.073 55.2076C596.035 55.9372 596.245 60.4268 596.708 64.6638C596.568 64.6919 596.413 64.7059 596.259 64.7339C595.024 59.0939 592.569 49.4835 590.465 51.3214C589.09 52.5279 590.928 60.8056 592.19 65.7581C591.938 65.8423 591.671 65.9265 591.419 66.0107C589.833 60.1321 586.424 48.81 584.165 51.0127C582.65 52.4858 585.554 62.4471 587.168 67.5399C586.943 67.6241 586.719 67.7083 586.508 67.8065C584.965 62.868 581.668 53.5381 579.409 55.7268C577.361 57.719 583.225 71.819 583.225 71.819L584.769 77.3608C584.769 77.3608 582.945 78.1465 580.097 74.9196C577.249 71.6928 573.839 71.1316 576.21 75.7895C578.89 81.0647 582.846 84.8388 584.586 88.5707C586.326 92.3027 591.812 93.5373 591.812 93.5373L602.825 93.0042C602.825 93.0042 604.958 74.4005 600.847 65.5196C600.131 60.2303 598.883 53.9309 597.073 55.2076Z" fill="#FFA681"/>
<path d="M460.856 98.1118C460.856 116.87 472.402 129.791 491.146 129.791C509.904 129.791 522.966 115.902 522.966 97.1437C522.966 91.9667 522.124 87.1404 520.497 82.8753C520.399 82.6228 520.3 82.3702 520.202 82.1177C520.006 81.6266 519.795 81.1496 519.571 80.6726C519.248 79.9431 518.883 79.2416 518.49 78.5541C513.608 69.7714 504.853 64.1875 493.096 64.1875C470.635 64.1875 460.856 79.3678 460.856 98.1118Z" fill="#18315B"/>
<path d="M465.079 106.194C465.079 106.194 459.874 99.2487 456.002 104.987C452.129 110.725 457.601 127.701 467.085 123.549L465.079 106.194Z" fill="#F97853"/>
<path d="M465.009 118.316C464.658 118.316 464.336 118.077 464.238 117.727C462.764 112.493 457.335 110.361 457.293 110.347C456.886 110.192 456.675 109.729 456.83 109.309C456.984 108.902 457.447 108.691 457.868 108.846C458.12 108.944 464.097 111.259 465.795 117.292C465.921 117.712 465.669 118.161 465.234 118.274C465.149 118.302 465.079 118.316 465.009 118.316Z" fill="#EA5143"/>
<path d="M459.523 115.678C459.369 115.678 459.229 115.636 459.089 115.552C458.71 115.313 458.612 114.822 458.85 114.443C458.892 114.387 459.846 112.914 461.852 112.016C462.259 111.834 462.736 112.016 462.905 112.423C463.087 112.83 462.905 113.307 462.498 113.475C460.94 114.177 460.197 115.299 460.183 115.299C460.043 115.552 459.79 115.678 459.523 115.678Z" fill="#EA5143"/>
<path d="M518.758 106.194C518.758 106.194 523.963 99.2487 527.835 104.987C531.707 110.725 526.236 127.701 516.751 123.549L518.758 106.194Z" fill="#F97853"/>
<path d="M518.827 118.316C519.178 118.316 519.501 118.077 519.599 117.727C521.072 112.493 526.502 110.361 526.544 110.347C526.951 110.192 527.161 109.729 527.007 109.309C526.852 108.902 526.389 108.691 525.968 108.846C525.716 108.944 519.739 111.259 518.042 117.292C517.929 117.712 518.168 118.161 518.603 118.274C518.687 118.302 518.757 118.316 518.827 118.316Z" fill="#EA5143"/>
<path d="M524.299 115.681C524.454 115.681 524.594 115.639 524.734 115.555C525.113 115.316 525.211 114.825 524.973 114.446C524.931 114.39 523.977 112.917 521.97 112.019C521.564 111.837 521.087 112.019 520.918 112.426C520.736 112.833 520.918 113.31 521.325 113.478C522.882 114.18 523.626 115.302 523.64 115.302C523.78 115.555 524.047 115.681 524.299 115.681Z" fill="#EA5143"/>
<path d="M504.742 137.942V154.806C504.742 154.806 499.705 163.393 492.9 163.982C486.11 164.571 480.063 156.588 480.063 156.588V139.135L504.742 137.942Z" fill="#FFA681"/>
<path d="M504.742 137.942V145.434C500.182 150.499 492.073 151.762 480.063 149.994V139.135L504.742 137.942Z" fill="#F97853"/>
<path d="M522.532 94.619C522.223 101.171 521.592 109.378 520.343 115.93C520.034 117.572 519.683 119.101 519.291 120.476C515.741 132.907 506.86 154.232 481.999 145.351C471.014 141.437 465.935 129.203 463.662 116.758C462.119 108.312 461.894 99.782 462.007 93.679C462.133 87.4497 465.528 81.7676 470.944 78.695C485.619 70.3753 501.108 73.4759 511.294 77.3903C518.365 80.1121 522.882 87.0569 522.532 94.619Z" fill="#FFA681"/>
<path d="M481.256 108.397C481.256 110.192 480.33 111.652 479.179 111.652C478.029 111.652 477.103 110.192 477.103 108.397C477.103 106.601 478.029 105.142 479.179 105.142C480.33 105.128 481.256 106.587 481.256 108.397Z" fill="#18315B"/>
<path d="M505.695 108.325C505.695 110.121 504.769 111.58 503.619 111.58C502.468 111.58 501.542 110.121 501.542 108.325C501.542 106.529 502.468 105.07 503.619 105.07C504.769 105.07 505.695 106.529 505.695 108.325Z" fill="#18315B"/>
<path d="M510.382 97.116C510.382 97.116 503.844 94.5345 498.807 96.7091L499.312 99.5151C499.312 99.5151 506.706 98.8838 510.424 100.399C510.746 99.3187 510.802 98.2244 510.382 97.116Z" fill="#18315B"/>
<path d="M472.262 97.116C472.262 97.116 478.8 94.5345 483.837 96.7091L483.332 99.5151C483.332 99.5151 475.938 98.8838 472.22 100.399C471.883 99.3187 471.841 98.2244 472.262 97.116Z" fill="#18315B"/>
<path d="M492.199 122.062C493.546 122.062 494.893 121.529 495.103 121.444C495.51 121.276 495.706 120.813 495.538 120.406C495.37 119.999 494.907 119.803 494.5 119.971C493.77 120.266 492.044 120.729 491.287 120.28C491.147 120.196 490.95 120.013 490.894 119.536C490.599 116.744 491.371 107.358 491.385 107.26C491.427 106.825 491.09 106.432 490.656 106.39C490.207 106.348 489.828 106.685 489.786 107.12C489.758 107.513 489 116.744 489.309 119.691C489.421 120.799 490.01 121.36 490.473 121.641C490.964 121.949 491.581 122.062 492.199 122.062Z" fill="#F97853"/>
<path d="M481.438 126.129C482.77 130.759 486.558 135.361 491.778 135.431C496.983 135.361 500.771 130.759 502.104 126.129H481.438Z" fill="white"/>
<path d="M491.329 140.454C493.405 140.454 495.159 139.402 495.229 139.36C495.608 139.136 495.734 138.645 495.496 138.266C495.271 137.887 494.78 137.761 494.401 137.999C494.387 138.013 492.942 138.869 491.329 138.869C489.842 138.869 488.425 138.013 488.411 138.013C488.032 137.775 487.541 137.901 487.302 138.28C487.064 138.659 487.19 139.15 487.569 139.388C487.639 139.402 489.365 140.454 491.329 140.454Z" fill="#F97853"/>
<path d="M521.675 106.333H518.042C518.448 102.686 519.024 96.2598 516.021 95.3479C506.551 92.4437 518.827 85.7514 514.548 82.4123C510.283 79.0732 499.648 80.5043 492.255 80.2658C484.819 80.0273 472.851 80.1255 469.961 80.7989C467.057 81.4583 468.642 86.2986 469.709 90.0306C470.789 93.7625 466.145 97.9013 465.359 101.774C465.135 102.882 465.177 104.537 465.359 106.319H462.329C461.964 101.605 461.922 97.2279 461.978 93.6643C462.104 87.435 465.5 81.7529 470.915 78.6804C485.59 70.3607 501.079 73.4613 511.265 77.3756C518.336 80.0974 522.868 87.0422 522.503 94.6043C522.363 98.21 522.096 102.293 521.675 106.333Z" fill="#18315B"/>
<path d="M478.815 117.838C473.806 117.838 469.737 113.77 469.737 108.761C469.737 103.752 473.806 99.6836 478.815 99.6836C483.823 99.6836 487.892 103.752 487.892 108.761C487.892 113.77 483.823 117.838 478.815 117.838ZM478.815 101.101C474.592 101.101 471.154 104.538 471.154 108.761C471.154 112.984 474.592 116.421 478.815 116.421C483.038 116.421 486.475 112.984 486.475 108.761C486.475 104.538 483.038 101.101 478.815 101.101Z" fill="white"/>
<path d="M503.619 117.838C498.61 117.838 494.542 113.77 494.542 108.761C494.542 103.752 498.61 99.6836 503.619 99.6836C508.628 99.6836 512.696 103.752 512.696 108.761C512.696 113.77 508.628 117.838 503.619 117.838ZM503.619 101.101C499.396 101.101 495.959 104.538 495.959 108.761C495.959 112.984 499.396 116.421 503.619 116.421C507.842 116.421 511.279 112.984 511.279 108.761C511.279 104.538 507.842 101.101 503.619 101.101Z" fill="white"/>
<path d="M471.281 105.843C471.098 105.843 470.916 105.773 470.789 105.632C470.747 105.59 466.623 101.592 461.221 102.854C460.842 102.938 460.463 102.7 460.365 102.321C460.281 101.942 460.52 101.564 460.898 101.465C467.086 100.02 471.603 104.426 471.786 104.622C472.066 104.903 472.066 105.352 471.786 105.618C471.645 105.773 471.463 105.843 471.281 105.843Z" fill="white"/>
<path d="M511.322 105.844C511.097 105.844 510.859 105.731 510.733 105.521C510.522 105.198 510.606 104.749 510.943 104.539C511.21 104.357 517.635 100.218 523.093 101.116C523.472 101.186 523.738 101.537 523.682 101.929C523.612 102.308 523.261 102.575 522.869 102.519C517.958 101.705 511.785 105.689 511.715 105.731C511.588 105.802 511.462 105.844 511.322 105.844Z" fill="white"/>
<path d="M495.047 106.727C495.033 106.699 493.349 104.426 491.146 104.426C488.958 104.426 487.443 106.699 487.429 106.713L486.25 105.941C486.334 105.815 488.2 103.009 491.16 103.009C494.107 103.009 496.127 105.773 496.211 105.885L495.047 106.727Z" fill="white"/>
<path d="M441.046 237.343C441.046 237.343 431.491 255.848 420.225 270.509C416.9 274.831 413.435 278.829 410.025 281.902C404.498 286.896 399.096 289.506 394.705 287.289C378.402 279.068 342.065 213.674 342.065 213.674L351.016 203.054C351.016 203.054 367.192 221.728 379.019 232.909C389.935 243.221 398.311 250.924 398.311 250.924C399.826 248.623 401.425 246.111 403.109 243.446C404.891 240.612 406.728 237.623 408.608 234.537C422.231 212.173 437.342 185.334 437.342 185.334L441.046 237.343Z" fill="#FFA681"/>
<path d="M420.226 270.509C416.901 274.83 413.435 278.828 410.026 281.901L403.095 243.445C404.877 240.611 406.715 237.623 408.595 234.536L420.226 270.509Z" fill="#F97853"/>
<path d="M437.328 185.334L404.666 236.711L415.624 281.902L442.659 237.89C442.659 237.89 445.942 207.782 437.328 185.334Z" fill="#006BDE"/>
<path d="M396.264 440.567C393.935 427.631 391.634 413.054 389.543 398.898C389.08 395.769 388.631 392.654 388.196 389.596C386.513 377.867 385.026 366.783 383.819 357.58C383.356 354.086 382.949 350.859 382.57 347.983C381.406 338.794 380.718 333.098 380.718 333.098L329.131 335.048L277.388 333.098C277.388 333.098 276.055 344.392 273.923 360.751C273.53 363.725 273.123 366.868 272.674 370.151C271.524 378.737 270.219 388.221 268.802 397.93C268.788 398.07 268.76 398.21 268.732 398.351C268.283 401.381 267.848 404.426 267.371 407.47C267.371 407.512 267.357 407.554 267.357 407.596C266.249 414.962 265.084 422.314 263.906 429.385C263.415 432.303 262.924 435.179 262.432 437.971C262.278 438.841 262.124 439.697 261.969 440.553H396.264V440.567Z" fill="#BD2618"/>
<path d="M289.271 348.586C289.271 351.266 287.097 353.455 284.403 353.455C281.723 353.455 279.535 351.28 279.535 348.586C279.535 345.906 281.709 343.718 284.403 343.718C287.097 343.732 289.271 345.906 289.271 348.586Z" fill="#264CBE"/>
<path d="M301.338 367.428C301.338 370.108 299.163 372.296 296.469 372.296C293.789 372.296 291.601 370.122 291.601 367.428C291.601 364.748 293.775 362.56 296.469 362.56C299.163 362.56 301.338 364.748 301.338 367.428Z" fill="#264CBE"/>
<path d="M325.076 357.705C325.076 360.385 322.901 362.574 320.207 362.574C317.528 362.574 315.339 360.399 315.339 357.705C315.339 355.026 317.514 352.837 320.207 352.837C322.901 352.837 325.076 355.012 325.076 357.705Z" fill="#264CBE"/>
<path d="M287.616 387.436C287.616 390.115 285.442 392.304 282.748 392.304C280.068 392.304 277.879 390.129 277.879 387.436C277.879 384.742 280.054 382.567 282.748 382.567C285.442 382.567 287.616 384.742 287.616 387.436Z" fill="#264CBE"/>
<path d="M317.275 385.359C317.275 388.038 315.101 390.227 312.407 390.227C309.727 390.227 307.539 388.052 307.539 385.359C307.539 382.665 309.713 380.49 312.407 380.49C315.101 380.49 317.275 382.665 317.275 385.359Z" fill="#264CBE"/>
<path d="M277.079 365.309C277.079 367.834 275.143 369.925 272.674 370.149C273.109 366.866 273.53 363.723 273.923 360.749C275.761 361.436 277.079 363.218 277.079 365.309Z" fill="#264CBE"/>
<path d="M365.608 413.923C365.608 416.603 363.434 418.791 360.74 418.791C358.06 418.791 355.872 416.617 355.872 413.923C355.872 411.243 358.046 409.055 360.74 409.055C363.434 409.055 365.608 411.229 365.608 413.923Z" fill="#264CBE"/>
<path d="M363.322 387.436C363.322 390.115 361.147 392.304 358.453 392.304C355.76 392.304 353.585 390.129 353.585 387.436C353.585 384.742 355.76 382.567 358.453 382.567C361.147 382.567 363.322 384.742 363.322 387.436Z" fill="#264CBE"/>
<path d="M389.529 398.896C388.94 399.149 388.295 399.275 387.621 399.275C384.941 399.275 382.767 397.1 382.767 394.421C382.767 391.741 384.941 389.566 387.621 389.566C387.818 389.566 388 389.58 388.182 389.608C388.631 392.653 389.08 395.768 389.529 398.896Z" fill="#264CBE"/>
<path d="M368.176 433.325C368.176 436.005 366.002 438.194 363.308 438.194C360.628 438.194 358.44 436.019 358.44 433.325C358.44 430.646 360.614 428.457 363.308 428.457C366.002 428.457 368.176 430.646 368.176 433.325Z" fill="#264CBE"/>
<path d="M388.968 425.569C388.968 428.248 386.793 430.437 384.1 430.437C381.42 430.437 379.231 428.262 379.231 425.569C379.231 422.889 381.406 420.7 384.1 420.7C386.793 420.7 388.968 422.875 388.968 425.569Z" fill="#264CBE"/>
<path d="M345.7 440.566C344.83 439.289 343.357 438.447 341.688 438.447C340.018 438.447 338.559 439.289 337.675 440.566H345.7Z" fill="#264CBE"/>
<path d="M284.417 418.146C284.417 420.825 282.243 423.014 279.549 423.014C276.869 423.014 274.681 420.839 274.681 418.146C274.681 415.466 276.855 413.277 279.549 413.277C282.243 413.277 284.417 415.466 284.417 418.146Z" fill="#264CBE"/>
<path d="M271.58 402.783C271.58 405.252 269.743 407.287 267.357 407.595C267.371 407.553 267.371 407.511 267.371 407.469C267.834 404.425 268.283 401.38 268.732 398.35C270.416 399.135 271.58 400.819 271.58 402.783Z" fill="#264CBE"/>
<path d="M265.898 433.327C265.898 435.529 264.439 437.381 262.433 437.985C262.924 435.193 263.415 432.317 263.906 429.398C265.113 430.282 265.898 431.713 265.898 433.327Z" fill="#264CBE"/>
<path d="M296.483 435.375C296.483 438.055 294.308 440.244 291.614 440.244C288.935 440.244 286.746 438.069 286.746 435.375C286.746 432.681 288.921 430.507 291.614 430.507C294.308 430.521 296.483 432.696 296.483 435.375Z" fill="#264CBE"/>
<path d="M322.144 431.572C322.144 434.252 319.97 436.441 317.276 436.441C314.596 436.441 312.407 434.266 312.407 431.572C312.407 428.893 314.582 426.704 317.276 426.704C319.956 426.704 322.144 428.893 322.144 431.572Z" fill="#264CBE"/>
<path d="M303.835 407.666C303.835 410.346 301.66 412.535 298.966 412.535C296.287 412.535 294.098 410.36 294.098 407.666C294.098 404.987 296.273 402.798 298.966 402.798C301.66 402.812 303.835 404.987 303.835 407.666Z" fill="#264CBE"/>
<path d="M329.944 402.811C329.944 405.49 327.769 407.679 325.076 407.679C322.382 407.679 320.207 405.504 320.207 402.811C320.207 400.117 322.382 397.942 325.076 397.942C327.769 397.942 329.944 400.117 329.944 402.811Z" fill="#264CBE"/>
<path d="M341.687 377.151C341.687 379.83 339.513 382.019 336.819 382.019C334.139 382.019 331.951 379.844 331.951 377.151C331.951 374.471 334.125 372.282 336.819 372.282C339.513 372.282 341.687 374.471 341.687 377.151Z" fill="#264CBE"/>
<path d="M383.805 357.579C383.469 357.663 383.118 357.691 382.767 357.691C380.073 357.691 377.913 355.517 377.913 352.837C377.913 350.227 379.975 348.081 382.571 347.982C382.936 350.859 383.356 354.085 383.805 357.579Z" fill="#264CBE"/>
<path d="M358.453 357.705C358.453 360.385 356.279 362.574 353.585 362.574C350.905 362.574 348.717 360.399 348.717 357.705C348.717 355.026 350.891 352.837 353.585 352.837C356.279 352.837 358.453 355.012 358.453 357.705Z" fill="#264CBE"/>
<path d="M376.257 375.032C376.257 377.712 374.083 379.901 371.389 379.901C368.709 379.901 366.521 377.726 366.521 375.032C366.521 372.353 368.695 370.164 371.389 370.164C374.083 370.164 376.257 372.339 376.257 375.032Z" fill="#264CBE"/>
<path d="M346.556 418.146C346.556 420.825 344.381 423.014 341.687 423.014C339.008 423.014 336.819 420.839 336.819 418.146C336.819 415.466 338.994 413.277 341.687 413.277C344.381 413.277 346.556 415.466 346.556 418.146Z" fill="#264CBE"/>
<path d="M383.847 334.375C356.629 352.137 306.668 350.748 275.269 334.375C278.272 315.687 282.214 296.986 281.372 272.125C281.274 269.403 281.162 266.695 281.022 264.001C280.895 261.672 280.769 259.343 280.615 257.057C277.907 215.682 270.85 181.856 274.315 177.493C275.831 175.585 278.356 173.509 281.471 171.404C282.691 170.576 283.996 169.72 285.385 168.879C288.64 166.886 292.26 164.894 295.907 162.93C304.536 158.328 313.304 154.049 317.696 151.131C322.045 153.025 325.524 154.063 329.256 154.049C329.355 154.049 329.467 154.049 329.579 154.035C329.677 154.049 329.79 154.049 329.888 154.049C333.62 154.063 337.099 153.025 341.448 151.131C345.517 153.839 353.191 157.627 361.02 161.737C366.772 164.768 372.609 167.981 377.154 171.109C380.129 173.144 382.556 175.15 384.043 177.03C385.769 179.191 385.039 188.703 383.566 202.775C382.107 216.622 379.932 234.917 378.614 255.008C378.249 260.592 377.954 266.316 377.744 272.111C376.916 296.986 380.858 315.687 383.847 334.375Z" fill="#EA5143"/>
<path d="M367.208 313.71C345.293 313.611 326.577 303.636 314.75 295.288C301.955 286.253 294.196 277.106 294.126 277.021C293.747 276.572 293.803 275.913 294.252 275.534C294.701 275.155 295.361 275.212 295.739 275.661C295.81 275.745 303.428 284.724 316.013 293.605C327.587 301.77 345.868 311.507 367.208 311.605C367.797 311.605 368.26 312.082 368.26 312.657C368.26 313.247 367.797 313.71 367.208 313.71Z" fill="#BD2618"/>
<path d="M352.7 300.956C334.041 297.295 317.527 282.998 316.77 282.339C316.335 281.96 316.293 281.287 316.672 280.852C317.05 280.417 317.724 280.375 318.159 280.753C318.355 280.922 337.787 297.73 357.597 299.539C358.186 299.582 358.607 300.101 358.551 300.69C358.495 301.265 357.99 301.7 357.4 301.644C355.829 301.49 354.258 301.265 352.7 300.956Z" fill="#BD2618"/>
<path d="M325.076 204.417C324.585 204.417 324.136 204.066 324.038 203.561C323.926 202.985 324.305 202.438 324.88 202.326C351.593 197.261 359.646 180.075 359.73 179.892C359.969 179.359 360.6 179.121 361.119 179.359C361.652 179.598 361.891 180.229 361.652 180.748C361.315 181.492 353.066 199.113 325.273 204.388C325.202 204.416 325.146 204.417 325.076 204.417Z" fill="#BD2618"/>
<path d="M361.02 161.737C355.717 173.831 342.683 186.36 325.721 183.428C309.306 180.594 301.519 171.909 295.893 162.93C304.522 158.314 313.29 154.049 317.682 151.131C322.031 153.025 325.51 154.063 329.242 154.049C329.341 154.049 329.453 154.049 329.565 154.035C329.663 154.049 329.775 154.049 329.888 154.049C333.62 154.063 337.099 153.025 341.448 151.131C345.517 153.839 353.191 157.613 361.02 161.737Z" fill="#FFA681"/>
<path d="M346.85 152.016C346.387 152.016 346.008 152.38 346.008 152.843C346.008 153.517 345.728 169.511 331.375 170.746C318.061 171.896 312.547 159.157 310.849 153.868C310.751 153.559 310.457 153.348 310.134 153.348H309.98C309.474 153.348 309.11 153.854 309.264 154.331C311.074 159.788 316.882 172.962 330.449 172.471C330.8 172.457 331.165 172.443 331.515 172.401C347.397 171.026 347.678 153.012 347.678 152.829C347.678 152.394 347.313 152.016 346.85 152.016Z" fill="white"/>
<path d="M356.993 67.0205C356.993 67.0205 369.817 86.8868 368.414 107.581C367.011 128.275 370.308 152.168 351.788 151.116C333.269 150.063 300.243 158.537 289.734 142.417C279.24 126.311 356.993 67.0205 356.993 67.0205Z" fill="#18315B"/>
<path d="M361.749 103.554C361.749 103.554 365.074 133.55 350.848 141.814C336.608 150.077 326.31 140.846 326.31 140.846C326.31 140.846 356.305 99.0367 361.749 103.554Z" fill="#000B29"/>
<path d="M302.613 103.414C302.613 103.414 297.506 96.5957 293.704 102.236C289.902 107.876 295.275 124.515 304.577 120.447L302.613 103.414Z" fill="#F97853"/>
<path d="M302.556 115.312C302.219 115.312 301.897 115.088 301.799 114.737C300.353 109.602 295.036 107.512 294.98 107.498C294.573 107.343 294.377 106.894 294.531 106.488C294.685 106.081 295.134 105.884 295.541 106.025C295.794 106.123 301.658 108.396 303.314 114.316C303.426 114.737 303.187 115.172 302.767 115.284C302.696 115.298 302.626 115.312 302.556 115.312Z" fill="#EA5143"/>
<path d="M297.169 112.73C297.029 112.73 296.875 112.688 296.748 112.604C296.384 112.365 296.271 111.888 296.51 111.523C296.552 111.467 297.492 110.022 299.456 109.138C299.849 108.956 300.312 109.138 300.494 109.531C300.677 109.924 300.494 110.387 300.102 110.569C298.572 111.257 297.843 112.351 297.829 112.365C297.688 112.59 297.436 112.73 297.169 112.73Z" fill="#EA5143"/>
<path d="M355.295 103.414C355.295 103.414 360.402 96.5957 364.204 102.236C368.006 107.876 362.633 124.515 353.331 120.447L355.295 103.414Z" fill="#F97853"/>
<path d="M355.351 115.312C355.702 115.312 356.01 115.088 356.109 114.737C357.554 109.602 362.871 107.512 362.927 107.498C363.334 107.343 363.53 106.894 363.376 106.488C363.222 106.081 362.773 105.884 362.366 106.025C362.113 106.123 356.249 108.396 354.593 114.316C354.481 114.737 354.72 115.172 355.141 115.284C355.211 115.298 355.281 115.312 355.351 115.312Z" fill="#EA5143"/>
<path d="M360.724 112.73C360.865 112.73 361.019 112.688 361.145 112.604C361.51 112.365 361.622 111.888 361.384 111.523C361.342 111.467 360.402 110.022 358.437 109.138C358.045 108.956 357.582 109.138 357.399 109.531C357.217 109.924 357.399 110.387 357.792 110.569C359.321 111.257 360.051 112.351 360.065 112.365C360.219 112.59 360.472 112.73 360.724 112.73Z" fill="#EA5143"/>
<path d="M341.532 134.574V151.129C341.532 151.129 336.593 159.561 329.915 160.137C323.251 160.712 317.316 152.883 317.316 152.883V135.753L341.532 134.574Z" fill="#FFA681"/>
<path d="M341.532 134.574V141.926C337.057 146.892 329.102 148.66 317.331 146.921V135.739L341.532 134.574Z" fill="#F97853"/>
<path d="M358.985 92.0637C358.677 98.4894 358.059 106.543 356.839 112.968C356.53 114.568 356.179 116.083 355.8 117.43C352.321 129.622 343.609 150.54 319.211 141.828C308.436 137.983 303.441 125.988 301.224 113.782C299.709 105.49 299.485 97.1145 299.597 91.1377C299.709 85.0347 303.048 79.4508 308.365 76.4344C322.76 68.269 337.954 71.3135 347.958 75.1577C354.903 77.8234 359.336 84.6419 358.985 92.0637Z" fill="#FFA681"/>
<path d="M318.214 104.397C318.214 106.165 317.302 107.596 316.18 107.596C315.057 107.596 314.146 106.165 314.146 104.397C314.146 102.629 315.057 101.198 316.18 101.198C317.302 101.198 318.214 102.629 318.214 104.397Z" fill="#18315B"/>
<path d="M343.327 104.397C343.327 106.165 342.416 107.596 341.293 107.596C340.171 107.596 339.259 106.165 339.259 104.397C339.259 102.629 340.171 101.198 341.293 101.198C342.416 101.198 343.327 102.629 343.327 104.397Z" fill="#18315B"/>
<path d="M312.154 94.8702C313.837 94.3932 317.261 93.5795 320.852 93.5654C321.806 93.5654 322.522 94.4072 322.353 95.3332V95.3613C322.213 96.1048 321.554 96.638 320.796 96.5959C318.341 96.4837 311.915 96.8204 308.885 98.055C308.829 97.5219 309.137 96.9466 309.572 96.4416C310.246 95.6559 311.158 95.1508 312.154 94.8702Z" fill="#18315B"/>
<path d="M345.011 94.9269C343.328 94.4498 339.904 93.6361 336.313 93.6221C335.373 93.6221 334.643 94.4639 334.812 95.3898V95.4179C334.952 96.1615 335.611 96.6946 336.369 96.6525C338.824 96.5403 345.25 96.877 348.28 98.1116C348.336 97.5785 348.028 97.0033 347.593 96.4982C346.919 95.7266 345.993 95.2074 345.011 94.9269Z" fill="#18315B"/>
<path d="M329.228 118.987C328.625 118.987 328.022 118.875 327.516 118.58C327.053 118.299 326.492 117.752 326.366 116.658C326.071 113.768 326.801 104.704 326.843 104.326C326.885 103.891 327.264 103.568 327.685 103.61C328.12 103.652 328.442 104.031 328.4 104.452C328.386 104.55 327.643 113.754 327.923 116.49C327.979 116.967 328.162 117.135 328.316 117.219C329.06 117.668 330.757 117.205 331.473 116.924C331.88 116.756 332.329 116.953 332.497 117.359C332.665 117.766 332.469 118.215 332.062 118.384C331.866 118.468 330.547 118.987 329.228 118.987Z" fill="#F97853"/>
<path d="M319.239 123.953C319.828 126.941 321.806 132.441 328.47 132.441C335.148 132.441 337.014 127.419 337.66 123.953H319.239Z" fill="white"/>
<path d="M328.371 137.03C326.449 137.03 324.751 135.991 324.681 135.949C324.317 135.725 324.204 135.234 324.429 134.869C324.653 134.504 325.144 134.392 325.509 134.617C325.523 134.631 326.912 135.458 328.371 135.458C329.957 135.458 331.374 134.617 331.388 134.617C331.766 134.392 332.243 134.518 332.468 134.883C332.692 135.248 332.58 135.739 332.201 135.963C332.131 136.006 330.406 137.03 328.371 137.03Z" fill="#F97853"/>
<path d="M362.156 90.7869C361.904 91.5024 361.202 91.9654 360.262 92.232C360.332 93.9717 360.15 96.0481 359.981 98.0544C359.013 109.419 356.137 111.411 355.492 108.605C355.071 106.739 355.085 96.0341 355.295 92.5406C353.051 92.3863 351.129 92.0215 351.129 92.0215L348.491 80.994L347.565 91.8953C343.609 93.2702 334.391 91.0675 334.391 91.0675L331.29 80.1943L329.382 90.6606C323.448 93.5508 316.04 91.6287 316.04 91.6287L314.342 80.3346L310.414 91.6287C310.414 91.6287 297.759 96.1744 297.619 91.6287C297.534 88.9911 299.471 81.5552 301.098 75.7889C302.88 69.5036 307.005 64.2003 312.589 61.1979C328.288 52.7799 344.885 57.2555 350.567 60.6507C362.647 67.848 362.156 90.7869 362.156 90.7869Z" fill="#18315B"/>
<path d="M304.577 67.8623C304.577 67.8623 294.167 80.2507 290.73 102.376C287.307 124.501 282.565 140.846 295.893 148.155C310.33 156.068 309.081 139.85 308.871 135.43C308.66 131.025 296.384 118.973 304.577 85.0489C307.229 74.1056 304.577 67.8623 304.577 67.8623Z" fill="#18315B"/>
<path d="M302.15 113.586C302.15 113.586 302.15 113.6 302.15 113.614C302.15 113.782 302.164 114.652 302.235 116.027C302.263 116.883 302.319 117.921 302.403 119.1C302.894 126.55 304.339 139.429 308.604 143.89C310.288 145.658 313.529 146.542 317.345 146.907V141.056C313.318 139.148 310.19 136.006 307.748 132.147C306.247 128.893 303.652 123.8 302.445 115.789L302.15 113.586Z" fill="#000B29"/>
<path d="M359.182 120.824C359.182 121.848 358.354 122.662 357.344 122.662C356.334 122.662 355.506 121.834 355.506 120.824C355.506 119.8 356.334 118.986 357.344 118.986C358.354 118.986 359.182 119.814 359.182 120.824Z" fill="white"/>
<path d="M396.726 259.609C391.506 274.551 368.133 273.457 341.518 265.291C341.476 265.277 341.448 265.263 341.406 265.249C341.321 265.221 341.237 265.193 341.153 265.179L337.491 264.015C336.986 263.846 336.481 263.678 335.976 263.509C333.114 262.555 330.224 261.517 327.32 260.409C317.807 256.803 308.225 252.51 299.19 247.95L299.246 247.796L301.968 240.725L302.894 238.326C302.894 238.326 352.237 243.699 377.056 238.522C377.477 238.438 377.883 238.34 378.29 238.256C378.192 237.709 378.164 237.147 378.01 236.614C364.864 191.859 379.244 183.273 384.057 177.029C384.042 177.029 406.575 231.409 396.726 259.609Z" fill="#EA5143"/>
<path d="M388.673 245.762C388.519 245.832 388.364 245.86 388.21 245.86C387.817 245.86 387.452 245.65 387.27 245.271C385.39 241.427 379.006 239.126 377.042 238.509C377.463 238.424 377.87 238.326 378.277 238.242C378.179 237.695 378.08 237.148 377.996 236.601C380.494 237.428 387.003 239.94 389.164 244.359C389.417 244.878 389.206 245.51 388.673 245.762Z" fill="#BD2618"/>
<path d="M319.562 243.881C309.488 243.881 301.309 243.306 300.607 243.25C300.032 243.208 299.597 242.703 299.639 242.127C299.681 241.552 300.186 241.117 300.762 241.159C301.14 241.187 338.151 243.811 352.742 237.89C353.276 237.666 353.893 237.933 354.117 238.466C354.342 238.999 354.075 239.616 353.542 239.841C345.447 243.11 331.235 243.881 319.562 243.881Z" fill="#BD2618"/>
<path d="M337.491 264.015C345.937 261.686 353.612 259.413 358.045 257.996C364.204 256.018 369.297 249.803 371.612 244.513C371.851 243.98 372.468 243.742 373.001 243.98C373.534 244.205 373.773 244.836 373.548 245.369C371.051 251.093 365.481 257.842 358.705 260.016C355.492 261.055 350.581 262.528 344.899 264.141C342.458 264.829 339.891 264.787 337.491 264.015Z" fill="#BD2618"/>
<path d="M360.249 256.789C283.982 282.478 260.524 265.67 260.524 265.67C255.389 219.245 274.316 177.492 274.316 177.492C279.9 186.71 286.227 202.788 286.227 202.788L287.897 238.382L287.77 239.364L287.714 239.827L287.392 242.254L287.378 242.296C287.546 242.324 287.7 242.366 287.869 242.394C310.934 247.263 353.122 241.819 353.122 241.819L360.249 256.789Z" fill="#EA5143"/>
<path d="M287.883 242.423C283.772 245.874 279.857 249.844 276.364 254.418C276.013 254.881 275.354 254.965 274.891 254.615C274.428 254.264 274.344 253.604 274.68 253.141C278.595 247.993 283.042 243.587 287.7 239.827L287.377 242.254L287.363 242.296C287.546 242.353 287.714 242.381 287.883 242.423Z" fill="#BD2618"/>
<path d="M353.135 241.848C353.135 241.848 361.581 222.669 374.419 224.381L378.291 238.242C371.262 241.23 370.238 253.268 360.263 256.79L353.135 241.848Z" fill="#FFA681"/>
<path d="M302.894 238.326C302.894 238.326 297.563 225.811 283.533 222.178C269.503 218.544 260.566 225.152 259.612 227.649C258.672 230.147 264.901 227.762 264.901 227.762C264.901 227.762 260.847 228.912 258.518 232.728C256.189 236.544 264.186 232.434 264.186 232.434C264.186 232.434 258.447 234.945 257.718 237.274C256.988 239.603 264.55 235.66 265.982 235.745C265.982 235.745 259.233 238.424 259.275 240.837C259.317 243.237 267.034 239.322 272.8 239.631C278.566 239.94 287.391 242.325 287.391 242.325C292.105 243.222 296.609 243.882 300.691 244.078L302.894 238.326Z" fill="#FFA681"/>
<path d="M438.395 43.7295C433.203 43.7295 428.98 39.5065 428.98 34.3154C428.98 29.1244 433.203 24.9014 438.395 24.9014C443.586 24.9014 447.809 29.1244 447.809 34.3154C447.809 39.5065 443.586 43.7295 438.395 43.7295ZM438.395 27.8476C434.831 27.8476 431.927 30.7518 431.927 34.3154C431.927 37.879 434.831 40.7832 438.395 40.7832C441.958 40.7832 444.862 37.879 444.862 34.3154C444.862 30.7518 441.958 27.8476 438.395 27.8476Z" fill="#006BDE"/>
<path d="M520.581 27.7353C515.39 27.7353 511.167 23.5123 511.167 18.3213C511.167 13.1302 515.39 8.90723 520.581 8.90723C525.772 8.90723 529.995 13.1302 529.995 18.3213C529.995 23.5123 525.772 27.7353 520.581 27.7353ZM520.581 11.8535C517.018 11.8535 514.114 14.7577 514.114 18.3213C514.114 21.8849 517.018 24.7891 520.581 24.7891C524.145 24.7891 527.049 21.8849 527.049 18.3213C527.035 14.7437 524.145 11.8535 520.581 11.8535Z" fill="#EA5143"/>
<path d="M532.212 58.3351C531.398 58.3351 530.739 57.6756 530.739 56.8619V50.352C530.739 49.5383 531.398 48.8789 532.212 48.8789C533.026 48.8789 533.685 49.5383 533.685 50.352V56.8619C533.685 57.6756 533.026 58.3351 532.212 58.3351Z" fill="#006BDE"/>
<path d="M532.212 69.7413C531.398 69.7413 530.739 69.0819 530.739 68.2682V61.7583C530.739 60.9446 531.398 60.2852 532.212 60.2852C533.026 60.2852 533.685 60.9446 533.685 61.7583V68.2682C533.685 69.0819 533.026 69.7413 532.212 69.7413Z" fill="#006BDE"/>
<path d="M541.36 60.79H535.509C534.696 60.79 534.036 60.1306 534.036 59.3169C534.036 58.5032 534.696 57.8438 535.509 57.8438H541.36C542.173 57.8438 542.833 58.5032 542.833 59.3169C542.833 60.1306 542.173 60.79 541.36 60.79Z" fill="#006BDE"/>
<path d="M528.915 60.79H523.065C522.251 60.79 521.592 60.1306 521.592 59.3169C521.592 58.5032 522.251 57.8438 523.065 57.8438H528.915C529.729 57.8438 530.388 58.5032 530.388 59.3169C530.388 60.1306 529.743 60.79 528.915 60.79Z" fill="#006BDE"/>
<path d="M482.461 18.8682C481.648 18.8682 480.988 18.2088 480.988 17.3951V10.8852C480.988 10.0715 481.648 9.41211 482.461 9.41211C483.275 9.41211 483.935 10.0715 483.935 10.8852V17.3951C483.935 18.2088 483.275 18.8682 482.461 18.8682Z" fill="#1C31B5"/>
<path d="M482.461 30.2755C481.648 30.2755 480.988 29.6161 480.988 28.8023V22.2925C480.988 21.4787 481.648 20.8193 482.461 20.8193C483.275 20.8193 483.935 21.4787 483.935 22.2925V28.8023C483.935 29.6161 483.275 30.2755 482.461 30.2755Z" fill="#1C31B5"/>
<path d="M491.609 21.3096H485.759C484.945 21.3096 484.286 20.6502 484.286 19.8364C484.286 19.0227 484.945 18.3633 485.759 18.3633H491.609C492.423 18.3633 493.082 19.0227 493.082 19.8364C493.082 20.6502 492.423 21.3096 491.609 21.3096Z" fill="#1C31B5"/>
<path d="M479.165 21.3096H473.314C472.501 21.3096 471.841 20.6502 471.841 19.8364C471.841 19.0227 472.501 18.3633 473.314 18.3633H479.165C479.979 18.3633 480.638 19.0227 480.638 19.8364C480.638 20.6502 479.979 21.3096 479.165 21.3096Z" fill="#1C31B5"/>
<path d="M101.719 10.4092C101.719 5.21811 105.942 0.995117 111.133 0.995117C116.324 0.995117 120.547 5.21811 120.547 10.4092C120.547 15.6002 116.324 19.8232 111.133 19.8232C105.956 19.8372 101.719 15.6143 101.719 10.4092ZM104.68 10.4092C104.68 13.9728 107.584 16.8769 111.147 16.8769C114.711 16.8769 117.615 13.9728 117.615 10.4092C117.615 6.84558 114.711 3.94139 111.147 3.94139C107.584 3.95542 104.68 6.84558 104.68 10.4092Z" fill="#006BDE"/>
<path d="M63.895 46.3125C63.895 41.1214 68.118 36.8984 73.3091 36.8984C78.5001 36.8984 82.7231 41.1214 82.7231 46.3125C82.7231 51.5035 78.5001 55.7265 73.3091 55.7265C68.118 55.7406 63.895 51.5176 63.895 46.3125ZM66.8553 46.3125C66.8553 49.8761 69.7595 52.7803 73.3231 52.7803C76.8867 52.7803 79.7909 49.8761 79.7909 46.3125C79.7909 42.7489 76.8867 39.8447 73.3231 39.8447C69.7595 39.8447 66.8553 42.7489 66.8553 46.3125Z" fill="#EA5143"/>
<path d="M44.3101 59.5431C45.1238 59.5431 45.7832 58.8837 45.7832 58.0699V51.5601C45.7832 50.7463 45.1238 50.0869 44.3101 50.0869C43.4963 50.0869 42.8369 50.7463 42.8369 51.5601V58.0699C42.8369 58.8696 43.4963 59.5431 44.3101 59.5431Z" fill="#006BDE"/>
<path d="M44.3101 70.9347C45.1238 70.9347 45.7832 70.2752 45.7832 69.4615V62.9517C45.7832 62.1379 45.1238 61.4785 44.3101 61.4785C43.4963 61.4785 42.8369 62.1379 42.8369 62.9517V69.4615C42.8369 70.2752 43.4963 70.9347 44.3101 70.9347Z" fill="#006BDE"/>
<path d="M35.1631 61.9824H41.0135C41.8273 61.9824 42.4867 61.323 42.4867 60.5093C42.4867 59.6955 41.8273 59.0361 41.0135 59.0361H35.1631C34.3493 59.0361 33.6899 59.6955 33.6899 60.5093C33.6899 61.323 34.3493 61.9824 35.1631 61.9824Z" fill="#006BDE"/>
<path d="M47.6079 61.9824H53.4584C54.2721 61.9824 54.9315 61.323 54.9315 60.5093C54.9315 59.6955 54.2721 59.0361 53.4584 59.0361H47.6079C46.7942 59.0361 46.1348 59.6955 46.1348 60.5093C46.1348 61.323 46.7942 61.9824 47.6079 61.9824Z" fill="#006BDE"/>
<path d="M78.3603 9.45614C79.1741 9.45614 79.8335 8.79674 79.8335 7.983V1.47314C79.8335 0.659405 79.1741 0 78.3603 0C77.5466 0 76.8872 0.659405 76.8872 1.47314V7.983C76.8872 8.78271 77.5466 9.45614 78.3603 9.45614Z" fill="#1C31B5"/>
<path d="M78.3608 20.8468C79.1746 20.8468 79.834 20.1874 79.834 19.3736V12.8638C79.834 12.05 79.1746 11.3906 78.3608 11.3906C77.5471 11.3906 76.8877 12.05 76.8877 12.8638V19.3736C76.8877 20.1874 77.5471 20.8468 78.3608 20.8468Z" fill="#1C31B5"/>
<path d="M69.2129 11.8974H75.0633C75.8771 11.8974 76.5365 11.238 76.5365 10.4243C76.5365 9.61058 75.8771 8.95117 75.0633 8.95117H69.2129C68.3991 8.95117 67.7397 9.61058 67.7397 10.4243C67.7397 11.238 68.3991 11.8974 69.2129 11.8974Z" fill="#1C31B5"/>
<path d="M81.6579 11.8974H87.5084C88.3221 11.8974 88.9815 11.238 88.9815 10.4243C88.9815 9.61058 88.3221 8.95117 87.5084 8.95117H81.6579C80.8442 8.95117 80.1848 9.61058 80.1848 10.4243C80.1708 11.238 80.8442 11.8974 81.6579 11.8974Z" fill="#1C31B5"/>
<path d="M618.707 451.27V452.294C618.707 458.201 613.909 462.999 608.003 462.999H52.489C46.5684 462.999 41.7842 458.201 41.7842 452.294V451.27C41.7842 445.364 46.5824 440.565 52.489 440.565H608.003C613.909 440.565 618.707 445.364 618.707 451.27Z" fill="#1C31B5"/>
<path d="M618.707 451.27V451.789H41.7842V451.27C41.7842 445.364 46.5824 440.565 52.489 440.565H608.003C613.909 440.565 618.707 445.364 618.707 451.27Z" fill="#006BDE"/>
<path d="M415.259 406.881H240.742C236.575 406.881 233.194 403.5 233.194 399.333V308.027C233.194 303.86 236.575 300.479 240.742 300.479H415.259C419.426 300.479 422.808 303.86 422.808 308.027V399.333C422.808 403.5 419.426 406.881 415.259 406.881Z" fill="#18315B"/>
<path d="M342.682 406.77H313.318V440.245H342.682V406.77Z" fill="#000B29"/>
<path d="M327.671 369.561C335.721 369.561 342.248 363.035 342.248 354.984C342.248 346.934 335.721 340.407 327.671 340.407C319.62 340.407 313.094 346.934 313.094 354.984C313.094 363.035 319.62 369.561 327.671 369.561Z" fill="#1D567E"/>
<path d="M365.411 440.246H289.664V437.692C289.664 432.543 293.845 428.362 298.994 428.362H356.096C361.245 428.362 365.425 432.543 365.425 437.692V440.246H365.411Z" fill="#18315B"/>
</svg>
