<svg width="23" height="23" viewBox="0 0 23 23" fill="none" xmlns="http://www.w3.org/2000/svg">
<g clip-path="url(#clip0_1545_4159)">
<path d="M14.296 5.08366C15.1913 5.25834 16.0142 5.69623 16.6592 6.34127C17.3042 6.9863 17.7421 7.80915 17.9168 8.70449L14.296 5.08366ZM14.296 1.41699C16.1561 1.62364 17.8908 2.45665 19.215 3.77925C20.5393 5.10185 21.3745 6.83542 21.5835 8.69533L14.296 1.41699ZM20.6668 16.0103V18.7603C20.6678 19.0156 20.6156 19.2683 20.5133 19.5022C20.411 19.7361 20.261 19.9461 20.0729 20.1187C19.8848 20.2913 19.6627 20.4227 19.4208 20.5045C19.179 20.5863 18.9227 20.6166 18.6685 20.5937C15.8477 20.2872 13.1382 19.3233 10.7576 17.7795C8.54282 16.3721 6.66503 14.4943 5.25764 12.2795C3.70846 9.8881 2.74436 7.1654 2.44348 4.33199C2.42057 4.0785 2.45069 3.82302 2.53193 3.58181C2.61317 3.34061 2.74375 3.11896 2.91534 2.93098C3.08694 2.743 3.2958 2.59281 3.52862 2.48997C3.76144 2.38713 4.01312 2.3339 4.26764 2.33366H7.01764C7.46251 2.32928 7.89378 2.48681 8.23109 2.7769C8.5684 3.06698 8.78871 3.46982 8.85098 3.91033C8.96705 4.79039 9.1823 5.65449 9.49264 6.48616C9.61597 6.81426 9.64267 7.17083 9.56956 7.51363C9.49645 7.85643 9.3266 8.17109 9.08014 8.42033L7.91598 9.58449C9.2209 11.8794 11.1211 13.7796 13.416 15.0845L14.5801 13.9203C14.8294 13.6739 15.144 13.504 15.4868 13.4309C15.8296 13.3578 16.1862 13.3845 16.5143 13.5078C17.346 13.8182 18.2101 14.0334 19.0901 14.1495C19.5354 14.2123 19.9421 14.4366 20.2328 14.7797C20.5235 15.1228 20.678 15.5608 20.6668 16.0103Z" stroke="#2D83E6" stroke-width="2" stroke-linecap="round" stroke-linejoin="round"/>
</g>
<defs>
<clipPath id="clip0_1545_4159">
<rect width="22" height="22" fill="white" transform="translate(0.5 0.5)"/>
</clipPath>
</defs>
</svg>
